<svg xmlns="http://www.w3.org/2000/svg" xmlns:xlink="http://www.w3.org/1999/xlink" viewBox="0 0 216.79 54.04"><defs><radialGradient id="radial-gradient" cx="35.93" cy="33.55" r="18.95" gradientTransform="translate(-0.72 0)" gradientUnits="userSpaceOnUse"><stop offset="0" stop-color="#fff"></stop><stop offset="0.53" stop-color="#fdfdfd"></stop><stop offset="0.71" stop-color="#f6f7f7"></stop><stop offset="0.85" stop-color="#ebebec"></stop><stop offset="0.96" stop-color="#dadbdc"></stop><stop offset="1" stop-color="#d1d3d4"></stop></radialGradient></defs><title>UMD_CMNS_Physics_S1_CMYK</title><g style="isolation:isolate"><g id="Layer_1" data-name="Layer 1"><path d="M71.18,21.94c0-1-.27-1.3-1.22-1.3h-.32v-.3l2.26-.1c.88,0,1.86,0,2.69,0,4.23,0,6.1,2.15,6.1,4.79,0,2.42-1.87,5.31-5.92,5.31H69.65V30h.27c.87,0,1.26-.24,1.26-1.17Zm1.33,7.17c0,.66,0,.88,1.31.88,2.14,0,3-.3,4-1.3a4.94,4.94,0,0,0,1.33-3.46,4.82,4.82,0,0,0-1.28-3.44c-.74-.74-1.87-1.3-4.11-1.3-.66,0-1.09,0-1.28.06Z" transform="translate(-7.81 -6.96)" style="fill:#231f20"></path><path d="M90.29,26.69H90c-.13-1.14-.43-1.26-1.09-1.26H86.19v3.41c0,.74.27.88.86.88h2.46c1.12,0,1.46-.43,1.86-1.81h.29l-.26,2.38h-8.5V30h.45c1.28,0,1.5-.35,1.5-1.31V21.92c0-.9-.21-1.28-1.28-1.28h-.35v-.3h7.68L91,22.56h-.29c-.21-1.36-.61-1.65-1.18-1.65H86.19v3.94h2.87c.58,0,.85-.27.93-1.2h.3Z" transform="translate(-7.81 -6.96)" style="fill:#231f20"></path><path d="M97.25,28.76c0,.9.27,1.23,1.28,1.23h.53v.3H94.62V30h.22c.83,0,1.07-.18,1.07-.93V21.49c0-.59-.19-.85-.75-.85h-.8v-.3l2-.1c.78,0,1.55,0,2,0,3.35,0,4.11,1.6,4.11,2.83,0,1.87-1.5,3.06-3.87,3.06A6.56,6.56,0,0,1,97.25,26Zm0-3.11a4.07,4.07,0,0,0,.86.13A2.7,2.7,0,0,0,101,23c0-1.25-.5-2.48-2.63-2.48a6.55,6.55,0,0,0-1.1.06Z" transform="translate(-7.81 -6.96)" style="fill:#231f20"></path><path d="M107.05,25.88l-.93,2.51a4.5,4.5,0,0,0-.32,1c0,.43.42.59,1.3.59h.26v.3h-3.7V30c1,0,1.22-.19,1.73-1.58l2.91-8-.14-.35h1.39L112.9,29a1.26,1.26,0,0,0,1.46,1v.3H110V30h.42c.91,0,1.25-.1,1.25-.54a1.77,1.77,0,0,0-.18-.66l-1.07-2.91Zm1.63-4.43-1.36,3.73h2.77Z" transform="translate(-7.81 -6.96)" style="fill:#231f20"></path><path d="M126.9,30.5c-1.18,0-2.21-.21-3.63-2.4-.21-.32-1.1-1.74-1.33-2h-2.13v2.15c0,1.39.11,1.76,1.71,1.76v.29h-4.58V30c1.54,0,1.54-.42,1.54-1.79V21.78c0-.8-.24-1.1-1.55-1.1v-.29c1.34-.11,2.71-.18,4.07-.18a5.66,5.66,0,0,1,2.67.48,2.64,2.64,0,0,1,1.6,2.37,2.74,2.74,0,0,1-2.1,2.59l2,3c.74,1.12,1.25,1.52,1.78,1.6Zm-7.09-4.69h.64a6.14,6.14,0,0,0,1.78-.18,2.49,2.49,0,0,0,1.52-2.51,2.43,2.43,0,0,0-1.28-2.27,6.12,6.12,0,0,0-2.66-.32Z" transform="translate(-7.81 -6.96)" style="fill:#231f20"></path><path d="M134.33,28.82c0,.86.29,1.17,1.26,1.17h.59v.3h-5V30h.59c1,0,1.26-.3,1.26-1.17V20.91h-2.79c-.64,0-.93.37-1.17,1.78h-.29L129,20.1h.3a.24.24,0,0,0,.18.19,1.06,1.06,0,0,0,.32,0h7.7c.22,0,.46,0,.5-.24h.3l.26,2.59h-.29c-.24-1.41-.53-1.78-1.17-1.78h-2.79Z" transform="translate(-7.81 -6.96)" style="fill:#231f20"></path><path d="M147.44,30.29l-4.08-8.53h0l-.43,7.2c0,.82.56,1,1.28,1v.3h-3.33V30c1.17,0,1.31-.26,1.39-1.71l.38-6.23c.06-1.06,0-1.34-1-1.41v-.29h2.42l3.86,8.07,3.84-8.07h2.35v.29c-.78.06-1.09.08-1.06.62l.51,7.25c.1,1.47.22,1.47,1.39,1.47v.3h-4.11V30c.75,0,1.49-.21,1.42-1.06l-.46-7.17h0l-4,8.53Z" transform="translate(-7.81 -6.96)" style="fill:#231f20"></path><path d="M165,26.69h-.3c-.13-1.14-.43-1.26-1.09-1.26h-2.71v3.41c0,.74.27.88.86.88h2.47c1.12,0,1.46-.43,1.86-1.81h.29l-.26,2.38h-8.5V30h.45c1.28,0,1.5-.35,1.5-1.31V21.92c0-.9-.21-1.28-1.28-1.28h-.35v-.3h7.68l.13,2.22h-.29c-.21-1.36-.61-1.65-1.18-1.65h-3.38v3.94h2.87c.58,0,.85-.27.93-1.2h.3Z" transform="translate(-7.81 -6.96)" style="fill:#231f20"></path><path d="M179.65,30.41l-8.29-8.68V28.6c0,1.15.26,1.39,1.62,1.39v.3h-3.71V30h.06c1,0,1.31-.34,1.31-1.07V21a2.35,2.35,0,0,0-1.34-.4v-.3h2.51l7.54,7.86V21.83c0-1-.29-1.15-1.57-1.18v-.3h3.75v.3c-1.2,0-1.46.21-1.46.83v8.93Z" transform="translate(-7.81 -6.96)" style="fill:#231f20"></path><path d="M189.82,28.82c0,.86.29,1.17,1.26,1.17h.59v.3h-5V30h.59c1,0,1.26-.3,1.26-1.17V20.91h-2.79c-.64,0-.93.37-1.17,1.78h-.29l.26-2.59h.3a.24.24,0,0,0,.18.19,1.06,1.06,0,0,0,.32,0H193c.22,0,.46,0,.5-.24h.3l.26,2.59h-.29c-.24-1.41-.53-1.78-1.17-1.78h-2.79Z" transform="translate(-7.81 -6.96)" style="fill:#231f20"></path><path d="M208.85,30.55c-3.14,0-5.78-2-5.78-5,0-3.19,2.45-5.44,5.86-5.44,3,0,5.62,2.06,5.62,4.95A5.51,5.51,0,0,1,208.85,30.55Zm-.34-10.05c-2.82,0-3.94,2.63-3.94,4.55,0,3,2,5.11,4.61,5.11s3.86-2.3,3.86-4.58C213,22.6,211.15,20.5,208.51,20.5Z" transform="translate(-7.81 -6.96)" style="fill:#231f20"></path><path d="M224.33,26.47h-.27c0-.93-.37-1.22-1.14-1.22h-3v3.5c0,.9.19,1.23,1.39,1.23v.3h-3.89V30c1-.06,1.17-.27,1.17-1.57V22.15c0-1-.08-1.49-1.2-1.5v-.3h7.17v1.89h-.27c0-.93-.34-1.31-1.33-1.31h-3v3.76h3.17c.59,0,.88-.34.93-1h.27Z" transform="translate(-7.81 -6.96)" style="fill:#231f20"></path><path d="M74.21,49c0,1.34.41,1.85,1.92,1.85h.79v.46H70.27v-.46h.34c1.25,0,1.61-.26,1.61-1.39V38.09c0-.89-.29-1.27-1.13-1.27h-1.2v-.46l3-.14c1.18,0,2.33-.07,3-.07,5,0,6.17,2.4,6.17,4.25,0,2.81-2.26,4.58-5.81,4.58a9.75,9.75,0,0,1-2-.19Zm0-4.66a6.15,6.15,0,0,0,1.3.19,4,4,0,0,0,4.3-4.2c0-1.87-.74-3.72-3.94-3.72a9.76,9.76,0,0,0-1.66.1Z" transform="translate(-7.81 -6.96)" style="fill:#231f20"></path><path d="M87.67,44.17v4.56c0,1.56.31,2.11,1.92,2.11h.07v.46h-6v-.46h.14c1.42,0,1.9-.38,1.9-1.75V38.53c0-1.25-.41-1.61-1.73-1.7v-.46h5.71v.46c-1.7,0-2,.46-2,2.3V43.3h9.41V38.57c0-1.27-.41-1.75-1.9-1.75h-.46v-.46h6.17v.46c-1.44,0-1.82.48-1.82,2v10c0,1.7.48,2.09,1.92,2.09h.24v.46H94.44v-.46h.74c1.56,0,1.9-.55,1.9-1.8V44.17Z" transform="translate(-7.81 -6.96)" style="fill:#231f20"></path><path d="M114.21,38.55c.77-1.32.31-1.73-1.22-1.73v-.46h5.42v.46a3.32,3.32,0,0,0-3,1.9l-4,6.75v3.6c0,1.27.46,1.78,1.92,1.78h.31v.46h-6.6v-.46h.46c1.49,0,1.92-.55,1.92-1.73V45.73l-4.27-6.67c-1.18-1.85-1.73-2.18-3.29-2.23v-.46h6.38v.46c-1.87,0-2,.46-1.27,1.56l3.84,5.93Z" transform="translate(-7.81 -6.96)" style="fill:#231f20"></path><path d="M120.43,47.65A4.16,4.16,0,0,0,124.49,51c1.61,0,3.31-.94,3.31-2.83,0-3.46-7.71-4.51-7.71-8.71,0-2,1.82-3.48,4.27-3.48,2,0,2.42.6,3.26.6a.46.46,0,0,0,.43-.24h.38l.41,3h-.41a4.24,4.24,0,0,0-3.87-2.83c-1.58,0-2.69.91-2.69,2.26,0,3.41,7.7,4.32,7.7,8.74,0,2.35-2.09,4.1-4.9,4.1a19.65,19.65,0,0,1-3.34-.65.58.58,0,0,0-.48.26h-.41l-.5-3.65Z" transform="translate(-7.81 -6.96)" style="fill:#231f20"></path><path d="M137.59,51.29h-5.83v-.46c1.49-.07,1.8-.46,1.8-2.06V38.55c0-1.3-.46-1.66-1.8-1.73v-.46h5.83v.46c-1.51,0-2,.34-2,1.94V48.94c0,1.42.38,1.9,2,1.9Z" transform="translate(-7.81 -6.96)" style="fill:#231f20"></path><path d="M153,40.3a5.6,5.6,0,0,0-5.47-3.7c-4,0-6.5,2.9-6.5,6.94,0,4.34,3.12,7.54,6.77,7.54a6.36,6.36,0,0,0,5.86-3.55h.46a16.33,16.33,0,0,1-1.54,3.5c-1.54-.22-2.59.65-5.42.65-4.87,0-8.38-3.22-8.38-7.66,0-4.66,3.6-8,8.62-8,3,0,4.32,1,5.06,1,.26,0,.38-.07.43-.14h.36l.22,3.48Z" transform="translate(-7.81 -6.96)" style="fill:#231f20"></path><path d="M156.48,47.65A4.16,4.16,0,0,0,160.53,51c1.61,0,3.31-.94,3.31-2.83,0-3.46-7.71-4.51-7.71-8.71,0-2,1.82-3.48,4.27-3.48,2,0,2.42.6,3.26.6a.46.46,0,0,0,.43-.24h.38l.41,3h-.41a4.24,4.24,0,0,0-3.87-2.83c-1.58,0-2.69.91-2.69,2.26,0,3.41,7.7,4.32,7.7,8.74,0,2.35-2.09,4.1-4.9,4.1a19.65,19.65,0,0,1-3.34-.65.58.58,0,0,0-.48.26h-.41l-.5-3.65Z" transform="translate(-7.81 -6.96)" style="fill:#231f20"></path><path d="M35.21,52.5A18.95,18.95,0,1,1,54.16,33.56,19,19,0,0,1,35.21,52.5Z" transform="translate(-7.81 -6.96)" style="fill:url(#radial-gradient)"></path><path d="M35.21,52.5A18.95,18.95,0,1,1,54.16,33.56,19,19,0,0,1,35.21,52.5Zm0-37.65a18.7,18.7,0,1,0,18.7,18.7A18.72,18.72,0,0,0,35.21,14.86Z" transform="translate(-7.81 -6.96)" style="fill:#d1d3d4"></path><path d="M54,33.14c0,.08-.33.36-.69.58h0a9.39,9.39,0,0,1-2,.74,31.57,31.57,0,0,1-3.15.62c-1.19.18-2.52.32-4,.45h0c-1.83.16-3,.23-4.44.31s-3.16.1-4.8.1c0,.21,0,.42,0,.62,0,1.47,0,2.87,0,4.19,0,7.23,0,7.22.26,11.62A18.82,18.82,0,0,0,54,33.56S54,33.28,54,33.14Z" transform="translate(-7.81 -6.96)" style="fill:#ffd200;mix-blend-mode:multiply"></path><path d="M34.93,36.57c0,1.47,0,2.87,0,4.19,3,2.86,3,2.86,4.27,4.12a61.3,61.3,0,0,0,.51-8.41q0-.31,0-.62c-1.91.08-3.16.1-4.8.1C34.93,36.15,34.93,36.36,34.93,36.57Z" transform="translate(-7.81 -6.96)" style="fill:#231f20"></path><path d="M41.84,48.09a17.73,17.73,0,0,0-2.62-3.2c-.64,4.58-1.78,7.41-3.19,7.47l.42,0,.48,0C38.88,52.12,40.56,50.63,41.84,48.09Z" transform="translate(-7.81 -6.96)" style="fill:#231f20"></path><path d="M44,40.41s-1.08,5.65-2.11,7.68a2.56,2.56,0,0,1,.38,2.34,14.09,14.09,0,0,0,4.37-6.07A17.43,17.43,0,0,0,44,40.41Z" transform="translate(-7.81 -6.96)" style="fill:#231f20"></path><path d="M38.56,52.08c.41-.07.39-.08,1.15-.25l.45-.13c1.39-.43,1.63-.65,2.07-1.29a8.87,8.87,0,0,1-4,1.74Z" transform="translate(-7.81 -6.96)" style="fill:#231f20"></path><path d="M46.93,47.47a18.53,18.53,0,0,0,4.37-12.37c0-.21,0-.42,0-.62a31.57,31.57,0,0,1-3.15.62c0,.21,0,.42,0,.63a23.08,23.08,0,0,1-1.54,8.62A4.3,4.3,0,0,1,46.93,47.47Z" transform="translate(-7.81 -6.96)" style="fill:#231f20"></path><path d="M44.18,35.54c-1.83.16-3,.23-4.44.31,2.58,2.68,3.13,3.31,4.22,4.56a36.39,36.39,0,0,0,.23-4.22C44.18,36,44.18,35.75,44.18,35.54Z" transform="translate(-7.81 -6.96)" style="fill:#231f20"></path><path d="M31.08,15.7a11,11,0,0,1,4.09-1h0a16.42,16.42,0,0,0-4.09,1" transform="translate(-7.81 -6.96)" style="fill:#231f20"></path><g style="mix-blend-mode:multiply"><path d="M47.82,35.09c-1-.13-1.8-1.79-1.37-3.47-1.38,1-2.93-1-2.7-2.82.12-1,.75-1.81,1.85-1.42a27,27,0,0,0-1.66-4.32c-1,.12-2,.23-3.17.31,1,1.52,0,2.93-1.38,2.71a2.13,2.13,0,0,1-1.7-2.5A1.73,1.73,0,0,1,35,22.13c0,3.83-.07,8.72-.06,13.82a97.47,97.47,0,0,0,13.2-.85h0A1.69,1.69,0,0,1,47.82,35.09Z" transform="translate(-7.81 -6.96)" style="fill:#e31933"></path></g><g style="mix-blend-mode:multiply"><path d="M23.05,38.87c1.4-.54,3.16,1.88,2.54,3.5a1.14,1.14,0,0,1-1.79.5,18.4,18.4,0,0,0,1.6,3.85c1,.14,2.1.25,3.32.35-1-1.2-.19-2.19,1.11-2.12,1.12.06,2.6,1,2.28,2.26,1-.45,2.71-.08,2.91,1.23,0-2.82-.08-7-.09-11.86,0-.21,0-.41,0-.62-1.59,0-3.2-.06-4.8-.12A62.38,62.38,0,0,1,21.57,35h0C23,35.49,23.43,37.67,23.05,38.87Z" transform="translate(-7.81 -6.96)" style="fill:#e31933"></path></g><path d="M44.13,21.53h0l.52-.09c1.08-.2,3.52-.78,3.52-1.5a10.66,10.66,0,0,1,1.66,2.3,2.8,2.8,0,0,1,.21.49,1.93,1.93,0,0,1,.13.64c0,.41-.29.41-.56.29l-.09,0a3.08,3.08,0,0,1-1.47-1.69,17.86,17.86,0,0,1-2,.64l-.3.06A25.1,25.1,0,0,1,47.9,27c.95-1,2.43.83,2.5,2.58,0,1-.42,1.94-1.36,1.61.75,1.39.51,3.43-.91,3.87a26.51,26.51,0,0,0-4-13.56h0" transform="translate(-7.81 -6.96)" style="fill:#e31933;mix-blend-mode:multiply"></path><path d="M44.11,21.54h0c-2.4-3.66-4.29-5-6.72-6-.48-.19-2.13-.84-2.22-.86v0h0a3.28,3.28,0,0,0,1.47,1.06c-.05.23,0,.68.78,1.26a2.52,2.52,0,0,0,.36.22c1.22.64,1.49.14,1.55-.06l0,0A12.51,12.51,0,0,1,41.27,19c.46.56.9,1,1.23,1.53-.76.1-1.76.18-2.75.26a2.23,2.23,0,0,0-1.47-2c-1.19-.44-1.58,1-1.07,1.95-.94-.51-2.06-.06-2.22,1.44a63.41,63.41,0,0,0,9.12-.59h0" transform="translate(-7.81 -6.96)" style="fill:#e31933;mix-blend-mode:multiply"></path><path d="M44.35,18.13a.25.25,0,0,1,0-.13.22.22,0,0,1,.05-.09.21.21,0,0,1,.09-.09c.19-.11.76-.17,2.34.92a18.64,18.64,0,0,0-9.76-3.92c-.42,0-1.2-.08-1.2-.08a6.63,6.63,0,0,1,1.75.39.87.87,0,0,1,.28.16h0a3.92,3.92,0,0,1,.67.14,9.09,9.09,0,0,1,1.21.47c.43.2,1.08.66,1.08.92-.1.06-.13.08-.42,0a24.36,24.36,0,0,1,3.65,3.39c.65-.12,1.62-.26,2.06-.41A7,7,0,0,1,44.35,18.13Z" transform="translate(-7.81 -6.96)" style="fill:#e31933;mix-blend-mode:multiply"></path><path d="M25.21,47.76A12.06,12.06,0,0,1,22,46.91a.46.46,0,0,0-.16-.06,22,22,0,0,1-1.71-2,18.69,18.69,0,0,1-1.12-1.68,1.63,1.63,0,0,1,.21,0c.85.28,2.17,2.59,2.18,2.61a13.83,13.83,0,0,0,2,.54,17.46,17.46,0,0,1-1.92-3.9c-1.17.59-2.67-2.51-2.2-3.82.1-.27.41-.82,1.2-.22-.6-1.38-.44-3.46,1-3.45,0,4.58.66,8.52,3.64,12.76" transform="translate(-7.81 -6.96)" style="fill:#e31933;mix-blend-mode:multiply"></path><path d="M35,48.69c-.16.65-1.08,1.28-2.37.75.6.8.08,1.49-1,1.29-.83-.15-1.81-.82-1.89-1.48-1-.08-2-.18-2.79-.29a10.43,10.43,0,0,0,2.62,2.22c.11,0,.29,0,.85.16.72.25,1.41.59,2.13.85l-.15,0c-.55-.08-.68-.11-1-.17-1.39-.27-3.8-1.06-6.23-4.24h0a64,64,0,0,0,9.82.67,2.47,2.47,0,0,1,0,.26" transform="translate(-7.81 -6.96)" style="fill:#e31933;mix-blend-mode:multiply"></path><path d="M35.17,14.72A18.92,18.92,0,0,0,16.39,33.19v0s.1.22.5.47h0a6.29,6.29,0,0,0,1.76.71c1,.25,2,.45,2.9.61h0a62.38,62.38,0,0,0,8.57.82c1.6.07,3.21.13,4.8.12,0-1,0-6.43,0-11.71,0-.68,0-1.39,0-2.11,0-3.44.11-6.94.18-7.4Z" transform="translate(-7.81 -6.96)" style="fill:#ffd200;mix-blend-mode:multiply"></path><path d="M44.19,50.1a18.54,18.54,0,0,1-2.7,1.2,10.39,10.39,0,0,1-1.18.38c2.54-.68,6-3.53,6.62-4.22a4,4,0,0,1-1.29,1.74C45.43,49.37,44.54,49.91,44.19,50.1Z" transform="translate(-7.81 -6.96)" style="fill:#231f20"></path><path d="M18.65,34.39a6,6,0,0,1-1.76-.71A19.65,19.65,0,0,1,26.4,17.51a8.06,8.06,0,0,0-2.54,3.41,21.52,21.52,0,0,0-5.21,13.47" transform="translate(-7.81 -6.96)" style="fill:#231f20"></path><path d="M26.42,17.5a10.25,10.25,0,0,1,4.36-2.25,18.21,18.21,0,0,1,4.4-.53h0a18.69,18.69,0,0,0-8.76,2.78" transform="translate(-7.81 -6.96)" style="fill:#231f20"></path><path d="M25.41,35.52c-1.38-.13-2.68-.32-3.85-.52a26,26,0,0,1,2-9.58,16.17,16.17,0,0,0,2.23,5.18,36.81,36.81,0,0,0-.41,4.92" transform="translate(-7.81 -6.96)" style="fill:#231f20"></path><path d="M35,22.13c0,2.07,0,4.2,0,5.85s0,2.81,0,3a58.81,58.81,0,0,1-4.2-4.75c.91-5.85,2.55-10.48,4.43-11.54h0C35.11,15.28,35,18.6,35,22.13Z" transform="translate(-7.81 -6.96)" style="fill:#231f20"></path><path d="M28.39,21.9a31.6,31.6,0,0,0-2.55,8.69A36.56,36.56,0,0,0,30,35.81a66.19,66.19,0,0,1,.76-9.57A13.7,13.7,0,0,1,28.39,21.9Z" transform="translate(-7.81 -6.96)" style="fill:#231f20"></path><path d="M53.31,33.73c0,.21,0,.42,0,.62A17.4,17.4,0,0,1,45,49.61l-.13.1A18.85,18.85,0,0,0,54,33.14,2.14,2.14,0,0,1,53.31,33.73Z" transform="translate(-7.81 -6.96)" style="fill:#231f20"></path><path d="M31.08,15.7a18.81,18.81,0,0,0-7.22,5.22,8.33,8.33,0,0,0-.27,4.5,20.84,20.84,0,0,1,4.94-7.17A5.31,5.31,0,0,1,31.08,15.7Z" transform="translate(-7.81 -6.96)" style="fill:#231f20"></path><path d="M28.38,21.92a5.34,5.34,0,0,1,.15-3.66,13.07,13.07,0,0,1,6.64-3.53c-2.64.71-5,3.48-6.79,7.19" transform="translate(-7.81 -6.96)" style="fill:#231f20"></path><path d="M14.27,21.26l-1.54-.77c-.35-.17-.41-.36-.24-.71l0,0-.21-.1-.72,1.44.21.1,0,0c.16-.28.25-.37.4-.37a1.21,1.21,0,0,1,.48.16l1.33.66a1.23,1.23,0,0,1,.57,1.85,1.29,1.29,0,0,1-1.14.84,1.52,1.52,0,0,1-.67-.18l-1.59-.79c-.28-.14-.32-.27-.17-.59l0-.1-.21-.1-.78,1.57.21.1,0,0c.13-.26.21-.34.33-.34a.66.66,0,0,1,.27.09l1.67.83a1.71,1.71,0,0,0,.76.19,1.79,1.79,0,0,0,1.57-1.15A1.69,1.69,0,0,0,14.27,21.26Z" transform="translate(-7.81 -6.96)" style="fill:#231f20"></path><path d="M16.24,15.18c0-.09.06-.21.24-.42l0,0-.18-.15-1,1.23.17.15,0,0c.21-.23.31-.31.41-.31a.47.47,0,0,1,.27.14L18,17.29l-4.22.27-.7.82.18.15,0,0a.92.92,0,0,1,.42-.28l2.38,2c.18.15.24.3,0,.6l-.05.06.18.15,1-1.22-.18-.15,0,0c-.2.23-.31.32-.42.32h0c-.09,0-.19-.05-.35-.19l-2-1.68L19,17.86l.16-.19-2.77-2.33A.25.25,0,0,1,16.24,15.18Z" transform="translate(-7.81 -6.96)" style="fill:#231f20"></path><path d="M21.15,15.62a.61.61,0,0,1-.35.18c-.09,0-.18-.06-.31-.22L18.76,13.5c-.25-.31-.21-.43.08-.67l0,0-.15-.18-1.28,1.06.15.18,0,0a.57.57,0,0,1,.31-.14c.09,0,.17.06.28.18L20,16c.26.31.26.41,0,.65l0,0,.15.18,1.28-1.06-.15-.18Z" transform="translate(-7.81 -6.96)" style="fill:#231f20"></path><path d="M23.62,9.77l0,0-.12-.2-1.37.8.11.2,0,0a1,1,0,0,1,.43-.17.15.15,0,0,1,.14.09,1.19,1.19,0,0,1,.1.38l.44,2.65-2.33-1.8c-.09-.07-.13-.13-.13-.18s.14-.24.42-.41l0,0-.12-.2-1.61.94.12.2,0,0a.63.63,0,0,1,.31-.11c.12,0,.23.07.42.23l3,2.3.34-.2-.59-3.64C23.29,10.11,23.36,9.92,23.62,9.77Z" transform="translate(-7.81 -6.96)" style="fill:#231f20"></path><path d="M28.82,10.82v0c0,.58-.05.74-.43.87l-.93.32-.17,0c-.08,0-.14,0-.2-.22l-.43-1.23,1-.33a.58.58,0,0,1,.18,0c.1,0,.19.06.33.35l0,0,.21-.07-.43-1.25-.21.07v0c.09.35,0,.45-.16.51l-1,.35-.48-1.38,1.22-.42.13,0c.1,0,.25.05.47.47l0,0,.21-.07L27.75,8l-3,1,.08.22L25,9.18a.83.83,0,0,1,.26-.05c.15,0,.23.08.32.34L26.47,12c.06.19.07.29,0,.37s-.17.17-.4.25l-.22.08.08.22,3.31-1.14-.24-1Z" transform="translate(-7.81 -6.96)" style="fill:#231f20"></path><path d="M35,10.77a1.83,1.83,0,0,1-1.29-.48l-.56-.44a8,8,0,0,0-.72-.52,1.12,1.12,0,0,0,.66-1.14c-.09-.74-.8-1.1-1.9-1-.41,0-.54.07-.8.11l-.26,0-.53.09h-.05l0,.23.2,0h.13c.2,0,.3.06.34.41l.32,2.67c0,.4-.06.48-.4.53l-.16,0,0,.23,1.91-.23,0-.23-.2,0h-.15c-.2,0-.32-.06-.35-.38l-.12-1,.27,0,.41-.06h0a5,5,0,0,1,.69.47l.47.37A2.1,2.1,0,0,0,35,11H35l0-.22ZM32.36,8.31a1,1,0,0,1-.16.76,1.19,1.19,0,0,1-.83.38h-.08l-.25,0-.24-2,.26,0C31.86,7.36,32.28,7.63,32.36,8.31Z" transform="translate(-7.81 -6.96)" style="fill:#231f20"></path><path d="M37.35,8.74c-.44-.32-.85-.63-.82-1s.31-.52.7-.49a1.07,1.07,0,0,1,.92.79v0l.21,0-.05-.93-.18,0,0,0s0,0-.06,0h0a.65.65,0,0,1-.22-.07A1.71,1.71,0,0,0,37.19,7a1.08,1.08,0,0,0-1.27.89c0,.61.49,1,1,1.41s.88.65.85,1.06a.75.75,0,0,1-.88.63A1,1,0,0,1,36,10v0l-.23,0L35.78,11H36l0,0a.11.11,0,0,1,.09,0h0l.18.06a2.87,2.87,0,0,0,.69.18h.14a1.2,1.2,0,0,0,1.3-1C38.44,9.54,37.86,9.12,37.35,8.74Z" transform="translate(-7.81 -6.96)" style="fill:#231f20"></path><path d="M40,7.64h0c.33.09.4.19.33.49l-.58,2.66c-.08.35-.15.41-.33.41l-.19,0h-.05l0,.23,1.62.35.05-.23h-.05c-.2,0-.32-.1-.37-.18a.48.48,0,0,1,0-.36L41,8.34c.07-.32.17-.38.34-.38l.24,0h.05l0-.23L40.1,7.42Z" transform="translate(-7.81 -6.96)" style="fill:#231f20"></path><path d="M46.63,9.43s0,0,0,0l-.11,0L43.62,8.3l-.1-.06a0,0,0,0,1,0,0v0l-.2-.08-.53,1,.21.08,0,0c.21-.36.35-.49.5-.49l.13,0,1,.39-1.14,2.88c-.09.23-.19.28-.29.28a.77.77,0,0,1-.27-.07l-.27-.1-.09.21,2,.78.08-.22-.27-.11c-.18-.07-.27-.14-.31-.22a.43.43,0,0,1,0-.33L45.23,9.3l1,.39c.19.08.26.21.14.77v0l.21.08.32-1.11-.2-.08Z" transform="translate(-7.81 -6.96)" style="fill:#231f20"></path><path d="M50.44,12l0,0c.17.11.25.2.25.27s-.08.13-.22.2L49,13.26l0-1.79c0-.27.06-.27.09-.27a.76.76,0,0,1,.33.16l0,0,.13-.19-1.5-1-.13.19,0,0c.31.22.39.35.37.93l0,2.09-.49.73c-.18.27-.32.28-.6.08l-.15-.1-.12.19,1.55,1,.13-.19-.11-.08c-.15-.1-.23-.19-.25-.28a.43.43,0,0,1,.1-.31l.52-.78,1.87-.9a1,1,0,0,1,.43-.12.93.93,0,0,1,.46.14l0,0,.13-.19-1.29-.86Z" transform="translate(-7.81 -6.96)" style="fill:#231f20"></path><path d="M56.6,17.52a2.41,2.41,0,0,0-1.89-1,2.12,2.12,0,0,0-1.53,3.59A2.34,2.34,0,0,0,55,21h0a2.22,2.22,0,0,0,1.35-.47A2.15,2.15,0,0,0,56.6,17.52Zm0,1.27a2.07,2.07,0,0,1-.85,1.35,2,2,0,0,1-1.21.45A1.34,1.34,0,0,1,53.47,20,1.85,1.85,0,0,1,54,17.41a2.06,2.06,0,0,1,1.2-.43,1.36,1.36,0,0,1,1.12.56A1.65,1.65,0,0,1,56.62,18.79Z" transform="translate(-7.81 -6.96)" style="fill:#231f20"></path><path d="M58.73,20.91l-.21.1,0,.05c.17.36.06.44-.31.62L56,22.76a1.08,1.08,0,0,1-.41.14c-.1,0-.17-.06-.29-.27l0,0-.21.1.71,1.5.21-.1L56,24a.6.6,0,0,1-.1-.42c0-.08.1-.14.27-.22l1.21-.58.49,1c.11.23.11.38-.22.55l0,0,.09.2,1.11-.53-.09-.19,0,0c-.23.09-.37.05-.46-.13l-.52-1.09,1.26-.6.5,1c.15.32.09.47-.22.63l0,0,.09.2.78-.37Z" transform="translate(-7.81 -6.96)" style="fill:#231f20"></path><path d="M13,49.52l2.3-4.24h0l-3.1,2c-.35.22-.24.53,0,.84l-.13.09L11,46.8l.13-.09c.35.48.5.46,1.12.06l2.69-1.7c.46-.29.56-.39.29-.82l.12-.09.72,1-2.17,4,4.48-.83.7,1-.12.09c-.26-.31-.36-.43-.58-.25l-2.84,2.38c-.58.48-.54.53-.19,1l-.13.09L14,50.93l.13-.09c.22.31.53.55.86.27l2.82-2.34h0l-4.72.91Z" transform="translate(-7.81 -6.96)" style="fill:#231f20"></path><path d="M21.05,53.94l-1.14-.84L21.6,52Zm-.1.37-.44,1.52a.87.87,0,0,1-.12.32c-.14.19-.3.12-.68-.15l-.17-.13-.09.12,1.81,1.33.09-.13a.64.64,0,0,1-.29-.85l1.31-4.66-.57-.42,0,.19-3.6,2.39c-.63.42-.76.44-1.19.13l-.09.13,1.52,1.11.09-.12L18.37,55c-.36-.26-.48-.46-.35-.63a2.26,2.26,0,0,1,.44-.32l1.14-.75Z" transform="translate(-7.81 -6.96)" style="fill:#231f20"></path><path d="M26.19,54.19l.39.12c1.18.42,1.31,1.09,1.06,1.81a1.28,1.28,0,0,1-1.87.78,3.33,3.33,0,0,1-.47-.18Zm-.95,2.67.39.15.53.17a6,6,0,0,1,.55,1l.33.69a2.63,2.63,0,0,0,2.05,1.76l0-.14a2.45,2.45,0,0,1-1.24-1.31l-.39-.82a9.71,9.71,0,0,0-.59-1.11,1.39,1.39,0,0,0,1.46-.88c.28-.79-.15-1.6-1.58-2.1-.5-.18-.66-.22-1-.32s-.8-.23-1-.3l-.05.15.17.06c.45.16.53.34.36.82l-1.15,3.24c-.18.51-.39.58-.84.42l-.13,0-.05.15,2.18.77.05-.15L25.19,59c-.43-.15-.57-.33-.41-.8Z" transform="translate(-7.81 -6.96)" style="fill:#231f20"></path><path d="M34.5,56.69c.3-.43.16-.58-.36-.62v-.15l1.84.16v.15a1.13,1.13,0,0,0-1.07.56L33.36,59l-.1,1.22c0,.43.1.62.6.66H34V61l-2.24-.19v-.15h.15c.51,0,.67-.13.7-.53l.1-1.15L31.42,56.6c-.34-.66-.52-.79-1.05-.85v-.15l2.16.19v.15c-.63-.06-.69.1-.47.49l1.13,2.12Z" transform="translate(-7.81 -6.96)" style="fill:#231f20"></path><path d="M41.28,60.35l-3.6.61,0-.15.26,0c.37-.06.49-.21.42-.62l-.6-3.57c-.07-.43-.23-.58-.74-.5l-.11,0,0-.15,2.37-.4,0,.15-.3.05c-.52.09-.65.17-.57.67L39,60.13c0,.21.14.28.37.24l1.18-.2c.47-.08.59-.29,1-1.08l.15,0Z" transform="translate(-7.81 -6.96)" style="fill:#231f20"></path><path d="M45.18,56.28l-1.3.54-.09-2Zm.27.28,1.08,1.16a.91.91,0,0,1,.21.28c.09.21-.05.32-.48.5l-.2.08.06.14,2.07-.86-.06-.14a.64.64,0,0,1-.88-.19L43.93,54l-.66.27.14.14.19,4.31c0,.76,0,.87-.5,1.09l.06.14,1.74-.73-.06-.14-.12.05c-.41.17-.64.18-.73,0a2.32,2.32,0,0,1,0-.54l-.06-1.37Z" transform="translate(-7.81 -6.96)" style="fill:#231f20"></path><path d="M54.28,53.39l-6.08-.72,2.23,2.7c.37.45.55.46,1.09,0l.1.12-1.46,1.21-.1-.12,0,0c.39-.32.41-.56.17-.85L47.7,52.64a1.17,1.17,0,0,0-.66.28l-.1-.12,1-.82,5.52.64-2.07-2.51c-.32-.38-.49-.36-1,0l-.1-.12,1.47-1.22.1.12c-.47.39-.5.56-.3.8l2.9,3.51Z" transform="translate(-7.81 -6.96)" style="fill:#231f20"></path><path d="M53.08,47.11c0-.09.15-.28.33-.57a2.73,2.73,0,0,1,1.69-1.4,2.45,2.45,0,0,1,1.83.4A2.51,2.51,0,0,1,58,47.07a2.43,2.43,0,0,1-.56,2.09c-.35.54-.46.5-.74.32ZM56.25,50c.4.26.39.49.15.86l-.08.12.13.08,1.42-2.19a2.79,2.79,0,0,0-.64-4c-1.13-.73-2.57-.52-3.74,1.29-.23.36-.49.78-.72,1.17l-.58,1,.13.08.09-.14c.26-.4.45-.45.89-.16Z" transform="translate(-7.81 -6.96)" style="fill:#231f20"></path><path d="M9,32.17v3.5c0,.18,0,.23.22.23h.34V36H8.06V35.9h.33c.19,0,.23-.06.23-.24v-3a3.76,3.76,0,0,1-.75.5l0-.08a5.16,5.16,0,0,0,1-.89Z" transform="translate(-7.81 -6.96)" style="fill:#231f20"></path><path d="M12.5,35.15a.8.8,0,0,1-.8.83.82.82,0,0,1-.8-.89,1,1,0,0,1,.62-.92C12.22,34.5,12.5,34.75,12.5,35.15ZM12.77,33a1,1,0,0,0-1.09-.87,1.05,1.05,0,0,0-1.09,1c0,.41.26.72.82,1-.59.24-.88.57-.88,1a1.08,1.08,0,0,0,1.17,1A1.13,1.13,0,0,0,12.89,35c0-.46-.27-.78-.91-1.07C12.51,33.71,12.77,33.43,12.77,33Zm-.36,0a1,1,0,0,1-.5.83c-.78-.33-1-.57-1-.9a.7.7,0,0,1,.74-.68A.72.72,0,0,1,12.4,33Z" transform="translate(-7.81 -6.96)" style="fill:#231f20"></path><path d="M57.57,32.6H59c.11,0,.14,0,.18-.08h.11l-.07.47H57.7l0,1.08a1.32,1.32,0,0,1,.65-.15,1.25,1.25,0,0,1,1.24,1.24,1.33,1.33,0,0,1-1.41,1.29c-.48,0-.88-.17-.88-.38a.19.19,0,0,1,.2-.19c.33,0,.44.42.82.42a1,1,0,0,0,.83-1,.91.91,0,0,0-.9-1,1,1,0,0,0-.64.24l-.06,0Z" transform="translate(-7.81 -6.96)" style="fill:#231f20"></path><path d="M62.16,35.29c0,.68-.29,1.06-.71,1.06S60.63,36,60.63,35a1.65,1.65,0,0,1,0-.37,1.34,1.34,0,0,1,.8-.36C61.86,34.27,62.16,34.64,62.16,35.29Zm0-2.76a2.48,2.48,0,0,0-2,2.36c0,.93.52,1.57,1.26,1.57a1.2,1.2,0,0,0,1.17-1.22,1.09,1.09,0,0,0-1.07-1.11,1.3,1.3,0,0,0-.86.35,2.28,2.28,0,0,1,1.57-1.86Z" transform="translate(-7.81 -6.96)" style="fill:#231f20"></path></g></g></svg>